# xmcd
#
# Track frame offsets: 
#        150
#        4397
#        19912
#        35937
#        52107
#        66767
#        84202
#        102007
#        122280
#        138730
#        152270
#        170700
#        188060
#        199865
#
# Disc length: 2867 seconds
#
# Revision: 7
# Processed by: cddbd v1.4PL0 Copyright (c) Steve Scherf et al.
# Submitted via: ExactAudioCopy v0.90b4
#
DISCID=ba0b310e
DTITLE=Martina McBride - Evolution
DYEAR=1997
DGENRE=Country
TTITLE0=I'm Little But I'm Loud
TTITLE1=Happy Girl
TTITLE2=Be That Way
TTITLE3=A Broken Wing
TTITLE4=Wrong Again
TTITLE5=Keeping My Distance
TTITLE6=Still Holding on
TTITLE7=Whatever You Say
TTITLE8=I Won't Close My Eyes
TTITLE9=I Don't Want to See You Again
TTITLE10=Some Say I'm Running
TTITLE11=Here in My Heart
TTITLE12=One Day You Will
TTITLE13=Valentine
EXTD=0\n\n\n
EXTT0=
EXTT1=
EXTT2=
EXTT3=
EXTT4=
EXTT5=
EXTT6=
EXTT7=
EXTT8=
EXTT9=
EXTT10=
EXTT11=
EXTT12=
EXTT13=
PLAYORDER=
